<mxfile host="app.diagrams.net" modified="2024-03-18T16:03:05.875Z" agent="Mozilla/5.0 (Windows NT 10.0; Win64; x64) AppleWebKit/537.36 (KHTML, like Gecko) Chrome/122.0.0.0 Safari/537.36 Edg/122.0.0.0" etag="J5N6JxtQSYbZVdZ1cRLY" version="24.0.7" type="github">
  <diagram id="C5RBs43oDa-KdzZeNtuy" name="Page-1">
    <mxGraphModel dx="955" dy="1866" grid="1" gridSize="10" guides="1" tooltips="1" connect="1" arrows="1" fold="1" page="1" pageScale="1" pageWidth="827" pageHeight="1169" math="0" shadow="0">
      <root>
        <mxCell id="WIyWlLk6GJQsqaUBKTNV-0" />
        <mxCell id="WIyWlLk6GJQsqaUBKTNV-1" parent="WIyWlLk6GJQsqaUBKTNV-0" />
        <mxCell id="1FuQE9b5k-u5UK85rxLV-1" value="" style="ellipse;html=1;shape=startState;fillColor=#000000;strokeColor=#ff0000;" parent="WIyWlLk6GJQsqaUBKTNV-1" vertex="1">
          <mxGeometry x="365" y="30" width="30" height="30" as="geometry" />
        </mxCell>
        <mxCell id="1FuQE9b5k-u5UK85rxLV-2" value="" style="edgeStyle=orthogonalEdgeStyle;html=1;verticalAlign=bottom;endArrow=open;endSize=8;strokeColor=#ff0000;rounded=0;" parent="WIyWlLk6GJQsqaUBKTNV-1" source="1FuQE9b5k-u5UK85rxLV-1" target="1FuQE9b5k-u5UK85rxLV-3" edge="1">
          <mxGeometry relative="1" as="geometry">
            <mxPoint x="520" y="135" as="targetPoint" />
            <Array as="points">
              <mxPoint x="440" y="185" />
              <mxPoint x="520" y="185" />
            </Array>
          </mxGeometry>
        </mxCell>
        <mxCell id="1FuQE9b5k-u5UK85rxLV-3" value="Empty Notebook" style="rounded=1;whiteSpace=wrap;html=1;arcSize=40;fontColor=#000000;fillColor=#ffffc0;strokeColor=#ff0000;" parent="WIyWlLk6GJQsqaUBKTNV-1" vertex="1">
          <mxGeometry x="320" y="175" width="120" height="40" as="geometry" />
        </mxCell>
        <mxCell id="1FuQE9b5k-u5UK85rxLV-4" value="" style="edgeStyle=orthogonalEdgeStyle;html=1;verticalAlign=bottom;endArrow=open;endSize=8;strokeColor=#ff0000;rounded=0;" parent="WIyWlLk6GJQsqaUBKTNV-1" source="1FuQE9b5k-u5UK85rxLV-3" edge="1" target="tdRhIj7-1oWamD294xV8-1">
          <mxGeometry relative="1" as="geometry">
            <mxPoint x="475" y="195" as="targetPoint" />
          </mxGeometry>
        </mxCell>
        <mxCell id="1FuQE9b5k-u5UK85rxLV-5" value="" style="ellipse;html=1;shape=endState;fillColor=#000000;strokeColor=#ff0000;" parent="WIyWlLk6GJQsqaUBKTNV-1" vertex="1">
          <mxGeometry x="455" y="580" width="30" height="30" as="geometry" />
        </mxCell>
        <mxCell id="tdRhIj7-1oWamD294xV8-12" style="edgeStyle=orthogonalEdgeStyle;rounded=0;orthogonalLoop=1;jettySize=auto;html=1;exitX=0.5;exitY=1;exitDx=0;exitDy=0;entryX=1;entryY=0.5;entryDx=0;entryDy=0;" edge="1" parent="WIyWlLk6GJQsqaUBKTNV-1" source="1FuQE9b5k-u5UK85rxLV-18" target="tdRhIj7-1oWamD294xV8-8">
          <mxGeometry relative="1" as="geometry" />
        </mxCell>
        <mxCell id="1FuQE9b5k-u5UK85rxLV-18" value="TaskList" style="rounded=1;whiteSpace=wrap;html=1;arcSize=40;fontColor=#000000;fillColor=#ffffc0;strokeColor=#ff0000;" parent="WIyWlLk6GJQsqaUBKTNV-1" vertex="1">
          <mxGeometry x="515" y="285" width="120" height="40" as="geometry" />
        </mxCell>
        <mxCell id="tdRhIj7-1oWamD294xV8-0" value="&lt;span style=&quot;color: rgb(0, 0, 0); font-family: Helvetica; font-size: 12px; font-style: normal; font-variant-ligatures: normal; font-variant-caps: normal; font-weight: 400; letter-spacing: normal; orphans: 2; text-align: center; text-indent: 0px; text-transform: none; widows: 2; word-spacing: 0px; -webkit-text-stroke-width: 0px; white-space: normal; background-color: rgb(251, 251, 251); text-decoration-thickness: initial; text-decoration-style: initial; text-decoration-color: initial; display: inline !important; float: none;&quot;&gt;Create&lt;span&gt;&amp;nbsp;&lt;/span&gt;&lt;/span&gt;" style="text;whiteSpace=wrap;html=1;" vertex="1" parent="WIyWlLk6GJQsqaUBKTNV-1">
          <mxGeometry x="360" y="95" width="40" height="30" as="geometry" />
        </mxCell>
        <mxCell id="tdRhIj7-1oWamD294xV8-3" style="edgeStyle=orthogonalEdgeStyle;rounded=0;orthogonalLoop=1;jettySize=auto;html=1;exitX=1;exitY=0.25;exitDx=0;exitDy=0;entryX=0;entryY=0.25;entryDx=0;entryDy=0;" edge="1" parent="WIyWlLk6GJQsqaUBKTNV-1" source="tdRhIj7-1oWamD294xV8-1" target="1FuQE9b5k-u5UK85rxLV-18">
          <mxGeometry relative="1" as="geometry" />
        </mxCell>
        <mxCell id="tdRhIj7-1oWamD294xV8-11" style="edgeStyle=orthogonalEdgeStyle;rounded=0;orthogonalLoop=1;jettySize=auto;html=1;exitX=0.5;exitY=1;exitDx=0;exitDy=0;entryX=0;entryY=0.5;entryDx=0;entryDy=0;" edge="1" parent="WIyWlLk6GJQsqaUBKTNV-1" source="tdRhIj7-1oWamD294xV8-1" target="tdRhIj7-1oWamD294xV8-8">
          <mxGeometry relative="1" as="geometry" />
        </mxCell>
        <mxCell id="tdRhIj7-1oWamD294xV8-1" value="Empty TaskList" style="rounded=1;whiteSpace=wrap;html=1;arcSize=40;fontColor=#000000;fillColor=#ffffc0;strokeColor=#ff0000;" vertex="1" parent="WIyWlLk6GJQsqaUBKTNV-1">
          <mxGeometry x="320" y="285" width="120" height="40" as="geometry" />
        </mxCell>
        <mxCell id="tdRhIj7-1oWamD294xV8-2" value="&lt;span style=&quot;color: rgb(0, 0, 0); font-family: Helvetica; font-size: 12px; font-style: normal; font-variant-ligatures: normal; font-variant-caps: normal; font-weight: 400; letter-spacing: normal; orphans: 2; text-align: center; text-indent: 0px; text-transform: none; widows: 2; word-spacing: 0px; -webkit-text-stroke-width: 0px; white-space: normal; background-color: rgb(251, 251, 251); text-decoration-thickness: initial; text-decoration-style: initial; text-decoration-color: initial; display: inline !important; float: none;&quot;&gt;Create TaskList&lt;/span&gt;" style="text;whiteSpace=wrap;html=1;" vertex="1" parent="WIyWlLk6GJQsqaUBKTNV-1">
          <mxGeometry x="335" y="235" width="90" height="20" as="geometry" />
        </mxCell>
        <mxCell id="tdRhIj7-1oWamD294xV8-4" value="Remove task" style="html=1;verticalAlign=bottom;endArrow=open;dashed=1;endSize=8;curved=0;rounded=0;exitX=0;exitY=0.75;exitDx=0;exitDy=0;entryX=1;entryY=0.75;entryDx=0;entryDy=0;" edge="1" parent="WIyWlLk6GJQsqaUBKTNV-1" source="1FuQE9b5k-u5UK85rxLV-18" target="tdRhIj7-1oWamD294xV8-1">
          <mxGeometry x="0.0667" y="30" relative="1" as="geometry">
            <mxPoint x="525" y="375" as="sourcePoint" />
            <mxPoint x="445" y="375" as="targetPoint" />
            <mxPoint as="offset" />
          </mxGeometry>
        </mxCell>
        <mxCell id="tdRhIj7-1oWamD294xV8-5" value="&lt;span style=&quot;color: rgb(0, 0, 0); font-family: Helvetica; font-size: 12px; font-style: normal; font-variant-ligatures: normal; font-variant-caps: normal; font-weight: 400; letter-spacing: normal; orphans: 2; text-align: center; text-indent: 0px; text-transform: none; widows: 2; word-spacing: 0px; -webkit-text-stroke-width: 0px; white-space: normal; background-color: rgb(251, 251, 251); text-decoration-thickness: initial; text-decoration-style: initial; text-decoration-color: initial; display: inline !important; float: none;&quot;&gt;Add task&lt;/span&gt;" style="text;whiteSpace=wrap;html=1;" vertex="1" parent="WIyWlLk6GJQsqaUBKTNV-1">
          <mxGeometry x="445" y="265" width="60" height="20" as="geometry" />
        </mxCell>
        <mxCell id="tdRhIj7-1oWamD294xV8-14" style="edgeStyle=orthogonalEdgeStyle;rounded=0;orthogonalLoop=1;jettySize=auto;html=1;exitX=0.5;exitY=1;exitDx=0;exitDy=0;" edge="1" parent="WIyWlLk6GJQsqaUBKTNV-1" source="tdRhIj7-1oWamD294xV8-8" target="1FuQE9b5k-u5UK85rxLV-5">
          <mxGeometry relative="1" as="geometry" />
        </mxCell>
        <mxCell id="tdRhIj7-1oWamD294xV8-8" value="" style="rhombus;whiteSpace=wrap;html=1;fontColor=#000000;fillColor=#ffffc0;strokeColor=#ff0000;" vertex="1" parent="WIyWlLk6GJQsqaUBKTNV-1">
          <mxGeometry x="450" y="420" width="40" height="40" as="geometry" />
        </mxCell>
      </root>
    </mxGraphModel>
  </diagram>
</mxfile>
